<svg width="20" height="20" viewBox="0 0 20 20" fill="none" xmlns="http://www.w3.org/2000/svg">
<path d="M15.9563 15.9188C16.0024 15.9617 16.0393 16.0134 16.0649 16.0709C16.0906 16.1284 16.1043 16.1905 16.1054 16.2535C16.1066 16.3164 16.095 16.3789 16.0714 16.4373C16.0478 16.4956 16.0127 16.5487 15.9682 16.5932C15.9237 16.6377 15.8707 16.6728 15.8123 16.6964C15.754 16.7199 15.6914 16.7315 15.6285 16.7304C15.5656 16.7293 15.5035 16.7155 15.446 16.6899C15.3885 16.6643 15.3367 16.6273 15.2938 16.5813L9.04383 10.3313C8.95604 10.2434 8.90674 10.1242 8.90674 10C8.90674 9.87581 8.95604 9.75667 9.04383 9.66878L15.2938 3.41878C15.3827 3.33598 15.5002 3.2909 15.6217 3.29304C15.7431 3.29518 15.859 3.34438 15.9448 3.43026C16.0307 3.51615 16.0799 3.63201 16.0821 3.75345C16.0842 3.87489 16.0391 3.99242 15.9563 4.08128L10.0384 10L15.9563 15.9188ZM3.78836 10L9.70633 4.08128C9.78913 3.99242 9.8342 3.87489 9.83206 3.75345C9.82992 3.63201 9.78072 3.51615 9.69484 3.43026C9.60896 3.34438 9.49309 3.29518 9.37165 3.29304C9.25021 3.2909 9.13269 3.33598 9.04383 3.41878L2.79383 9.66878C2.70604 9.75667 2.65674 9.87581 2.65674 10C2.65674 10.1242 2.70604 10.2434 2.79383 10.3313L9.04383 16.5813C9.08674 16.6273 9.13849 16.6643 9.19599 16.6899C9.25349 16.7155 9.31556 16.7293 9.3785 16.7304C9.44144 16.7315 9.50396 16.7199 9.56232 16.6964C9.62069 16.6728 9.67371 16.6377 9.71822 16.5932C9.76274 16.5487 9.79783 16.4956 9.8214 16.4373C9.84498 16.3789 9.85656 16.3164 9.85545 16.2535C9.85434 16.1905 9.84056 16.1284 9.81494 16.0709C9.78932 16.0134 9.75238 15.9617 9.70633 15.9188L3.78836 10Z" fill="#201F1F"/>
</svg>
